<svg xmlns="http://www.w3.org/2000/svg" xmlns:xlink="http://www.w3.org/1999/xlink" contentStyleType="text/css" data-diagram-type="SEQUENCE" height="473px" preserveAspectRatio="none" style="width:993px;height:473px;background:#FFFFFF;" version="1.1" viewBox="0 0 993 473" width="993px" zoomAndPan="magnify"><defs/><g><g><title>Client</title><rect fill="#000000" fill-opacity="0.00000" height="311.3281" width="8" x="24.2651" y="81.2969"/><line style="stroke:#181818;stroke-width:0.5;stroke-dasharray:5.0,5.0;" x1="28" x2="28" y1="81.2969" y2="392.625"/></g><g><title>Web Interface</title><rect fill="#000000" fill-opacity="0.00000" height="311.3281" width="8" x="244.9917" y="81.2969"/><line style="stroke:#181818;stroke-width:0.5;stroke-dasharray:5.0,5.0;" x1="248.7559" x2="248.7559" y1="81.2969" y2="392.625"/></g><g><title>CodeExecutionServer</title><rect fill="#000000" fill-opacity="0.00000" height="311.3281" width="8" x="435.6812" y="81.2969"/><line style="stroke:#181818;stroke-width:0.5;stroke-dasharray:5.0,5.0;" x1="439.2397" x2="439.2397" y1="81.2969" y2="392.625"/></g><g><title>Database</title><rect fill="#000000" fill-opacity="0.00000" height="311.3281" width="8" x="623.4443" y="81.2969"/><line style="stroke:#181818;stroke-width:0.5;stroke-dasharray:5.0,5.0;" x1="627.0439" x2="627.0439" y1="81.2969" y2="392.625"/></g><g><title>CodeExecutor</title><rect fill="#000000" fill-opacity="0.00000" height="311.3281" width="8" x="729.8276" y="81.2969"/><line style="stroke:#181818;stroke-width:0.5;stroke-dasharray:5.0,5.0;" x1="732.8447" x2="732.8447" y1="81.2969" y2="392.625"/></g><g><title>PythonSecurityChecker</title><rect fill="#000000" fill-opacity="0.00000" height="311.3281" width="8" x="895.1899" y="81.2969"/><line style="stroke:#181818;stroke-width:0.5;stroke-dasharray:5.0,5.0;" x1="898.4629" x2="898.4629" y1="81.2969" y2="392.625"/></g><g class="participant participant-head" data-participant="Client"><text fill="#000000" font-family="sans-serif" font-size="14" lengthAdjust="spacing" textLength="40.5303" x="5" y="77.9951">Client</text><ellipse cx="28.2651" cy="13.5" fill="#E2E2F0" rx="8" ry="8" style="stroke:#181818;stroke-width:0.5;"/><path d="M28.2651,21.5 L28.2651,48.5 M15.2651,29.5 L41.2651,29.5 M28.2651,48.5 L15.2651,63.5 M28.2651,48.5 L41.2651,63.5" fill="none" style="stroke:#181818;stroke-width:0.5;"/></g><g class="participant participant-tail" data-participant="Client"><text fill="#000000" font-family="sans-serif" font-size="14" lengthAdjust="spacing" textLength="40.5303" x="5" y="404.6201">Client</text><ellipse cx="28.2651" cy="416.4219" fill="#E2E2F0" rx="8" ry="8" style="stroke:#181818;stroke-width:0.5;"/><path d="M28.2651,424.4219 L28.2651,451.4219 M15.2651,432.4219 L41.2651,432.4219 M28.2651,451.4219 L15.2651,466.4219 M28.2651,451.4219 L41.2651,466.4219" fill="none" style="stroke:#181818;stroke-width:0.5;"/></g><g class="participant participant-head" data-participant="Web"><rect fill="#E2E2F0" height="30.2969" rx="2.5" ry="2.5" style="stroke:#181818;stroke-width:0.5;" width="112.4717" x="192.7559" y="50"/><text fill="#000000" font-family="sans-serif" font-size="14" lengthAdjust="spacing" textLength="98.4717" x="199.7559" y="69.9951">Web Interface</text></g><g class="participant participant-tail" data-participant="Web"><rect fill="#E2E2F0" height="30.2969" rx="2.5" ry="2.5" style="stroke:#181818;stroke-width:0.5;" width="112.4717" x="192.7559" y="391.625"/><text fill="#000000" font-family="sans-serif" font-size="14" lengthAdjust="spacing" textLength="98.4717" x="199.7559" y="411.6201">Web Interface</text></g><g class="participant participant-head" data-participant="Server"><rect fill="#E2E2F0" height="30.2969" rx="2.5" ry="2.5" style="stroke:#181818;stroke-width:0.5;" width="164.8828" x="357.2397" y="50"/><text fill="#000000" font-family="sans-serif" font-size="14" lengthAdjust="spacing" textLength="150.8828" x="364.2397" y="69.9951">CodeExecutionServer</text></g><g class="participant participant-tail" data-participant="Server"><rect fill="#E2E2F0" height="30.2969" rx="2.5" ry="2.5" style="stroke:#181818;stroke-width:0.5;" width="164.8828" x="357.2397" y="391.625"/><text fill="#000000" font-family="sans-serif" font-size="14" lengthAdjust="spacing" textLength="150.8828" x="364.2397" y="411.6201">CodeExecutionServer</text></g><g class="participant participant-head" data-participant="DB"><rect fill="#E2E2F0" height="30.2969" rx="2.5" ry="2.5" style="stroke:#181818;stroke-width:0.5;" width="80.8008" x="587.0439" y="50"/><text fill="#000000" font-family="sans-serif" font-size="14" lengthAdjust="spacing" textLength="66.8008" x="594.0439" y="69.9951">Database</text></g><g class="participant participant-tail" data-participant="DB"><rect fill="#E2E2F0" height="30.2969" rx="2.5" ry="2.5" style="stroke:#181818;stroke-width:0.5;" width="80.8008" x="587.0439" y="391.625"/><text fill="#000000" font-family="sans-serif" font-size="14" lengthAdjust="spacing" textLength="66.8008" x="594.0439" y="411.6201">Database</text></g><g class="participant participant-head" data-participant="Executor"><rect fill="#E2E2F0" height="30.2969" rx="2.5" ry="2.5" style="stroke:#181818;stroke-width:0.5;" width="111.9658" x="677.8447" y="50"/><text fill="#000000" font-family="sans-serif" font-size="14" lengthAdjust="spacing" textLength="97.9658" x="684.8447" y="69.9951">CodeExecutor</text></g><g class="participant participant-tail" data-participant="Executor"><rect fill="#E2E2F0" height="30.2969" rx="2.5" ry="2.5" style="stroke:#181818;stroke-width:0.5;" width="111.9658" x="677.8447" y="391.625"/><text fill="#000000" font-family="sans-serif" font-size="14" lengthAdjust="spacing" textLength="97.9658" x="684.8447" y="411.6201">CodeExecutor</text></g><g class="participant participant-head" data-participant="Checker"><rect fill="#E2E2F0" height="30.2969" rx="2.5" ry="2.5" style="stroke:#181818;stroke-width:0.5;" width="177.4541" x="810.4629" y="50"/><text fill="#000000" font-family="sans-serif" font-size="14" lengthAdjust="spacing" textLength="163.4541" x="817.4629" y="69.9951">PythonSecurityChecker</text></g><g class="participant participant-tail" data-participant="Checker"><rect fill="#E2E2F0" height="30.2969" rx="2.5" ry="2.5" style="stroke:#181818;stroke-width:0.5;" width="177.4541" x="810.4629" y="391.625"/><text fill="#000000" font-family="sans-serif" font-size="14" lengthAdjust="spacing" textLength="163.4541" x="817.4629" y="411.6201">PythonSecurityChecker</text></g><g class="message" data-participant-1="Client" data-participant-2="Web"><polygon fill="#181818" points="236.9917,108.4297,246.9917,112.4297,236.9917,116.4297,240.9917,112.4297" style="stroke:#181818;stroke-width:1;"/><line style="stroke:#181818;stroke-width:1;" x1="28.2651" x2="242.9917" y1="112.4297" y2="112.4297"/><text fill="#000000" font-family="sans-serif" font-size="13" lengthAdjust="spacing" textLength="196.7266" x="35.2651" y="107.3638">Request (POST /process-code)</text></g><g class="message" data-participant-1="Web" data-participant-2="Server"><polygon fill="#181818" points="427.6812,137.5625,437.6812,141.5625,427.6812,145.5625,431.6812,141.5625" style="stroke:#181818;stroke-width:1;"/><line style="stroke:#181818;stroke-width:1;" x1="248.9917" x2="433.6812" y1="141.5625" y2="141.5625"/><text fill="#000000" font-family="sans-serif" font-size="13" lengthAdjust="spacing" textLength="166.6895" x="255.9917" y="136.4966">HTTP POST /process-code</text></g><g class="message" data-participant-1="Server" data-participant-2="DB"><polygon fill="#181818" points="615.4443,166.6953,625.4443,170.6953,615.4443,174.6953,619.4443,170.6953" style="stroke:#181818;stroke-width:1;"/><line style="stroke:#181818;stroke-width:1;" x1="439.6812" x2="621.4443" y1="170.6953" y2="170.6953"/><text fill="#000000" font-family="sans-serif" font-size="13" lengthAdjust="spacing" textLength="163.7632" x="446.6812" y="165.6294">is_api_key_valid(api_key)</text></g><g class="message" data-participant-1="DB" data-participant-2="Server"><polygon fill="#181818" points="450.6812,195.8281,440.6812,199.8281,450.6812,203.8281,446.6812,199.8281" style="stroke:#181818;stroke-width:1;"/><line style="stroke:#181818;stroke-width:1;stroke-dasharray:2.0,2.0;" x1="444.6812" x2="626.4443" y1="199.8281" y2="199.8281"/><text fill="#000000" font-family="sans-serif" font-size="13" lengthAdjust="spacing" textLength="97.7031" x="456.6812" y="194.7622">API key is valid</text></g><g class="message" data-participant-1="Server" data-participant-2="Executor"><polygon fill="#181818" points="721.8276,224.9609,731.8276,228.9609,721.8276,232.9609,725.8276,228.9609" style="stroke:#181818;stroke-width:1;"/><line style="stroke:#181818;stroke-width:1;" x1="439.6812" x2="727.8276" y1="228.9609" y2="228.9609"/><text fill="#000000" font-family="sans-serif" font-size="13" lengthAdjust="spacing" textLength="119.9644" x="446.6812" y="223.895">execute_code(file)</text></g><g class="message" data-participant-1="Executor" data-participant-2="Checker"><polygon fill="#181818" points="887.1899,254.0938,897.1899,258.0938,887.1899,262.0938,891.1899,258.0938" style="stroke:#181818;stroke-width:1;"/><line style="stroke:#181818;stroke-width:1;" x1="733.8276" x2="893.1899" y1="258.0938" y2="258.0938"/><text fill="#000000" font-family="sans-serif" font-size="13" lengthAdjust="spacing" textLength="94.3008" x="740.8276" y="253.0278">check_file(file)</text></g><g class="message" data-participant-1="Checker" data-participant-2="Executor"><polygon fill="#181818" points="744.8276,283.2266,734.8276,287.2266,744.8276,291.2266,740.8276,287.2266" style="stroke:#181818;stroke-width:1;"/><line style="stroke:#181818;stroke-width:1;stroke-dasharray:2.0,2.0;" x1="738.8276" x2="898.1899" y1="287.2266" y2="287.2266"/><text fill="#000000" font-family="sans-serif" font-size="13" lengthAdjust="spacing" textLength="141.3623" x="750.8276" y="282.1606">safe file for execution</text></g><g class="message" data-participant-1="Executor" data-participant-2="Server"><polygon fill="#181818" points="450.6812,312.3594,440.6812,316.3594,450.6812,320.3594,446.6812,316.3594" style="stroke:#181818;stroke-width:1;"/><line style="stroke:#181818;stroke-width:1;stroke-dasharray:2.0,2.0;" x1="444.6812" x2="732.8276" y1="316.3594" y2="316.3594"/><text fill="#000000" font-family="sans-serif" font-size="13" lengthAdjust="spacing" textLength="105.1743" x="456.6812" y="311.2935">execution result</text></g><g class="message" data-participant-1="Server" data-participant-2="Web"><polygon fill="#181818" points="259.9917,341.4922,249.9917,345.4922,259.9917,349.4922,255.9917,345.4922" style="stroke:#181818;stroke-width:1;"/><line style="stroke:#181818;stroke-width:1;" x1="253.9917" x2="438.6812" y1="345.4922" y2="345.4922"/><text fill="#000000" font-family="sans-serif" font-size="13" lengthAdjust="spacing" textLength="151.9883" x="265.9917" y="340.4263">HTTP Response (result)</text></g><g class="message" data-participant-1="Web" data-participant-2="Client"><polygon fill="#181818" points="39.2651,370.625,29.2651,374.625,39.2651,378.625,35.2651,374.625" style="stroke:#181818;stroke-width:1;"/><line style="stroke:#181818;stroke-width:1;" x1="33.2651" x2="247.9917" y1="374.625" y2="374.625"/><text fill="#000000" font-family="sans-serif" font-size="13" lengthAdjust="spacing" textLength="94.1992" x="45.2651" y="369.5591">Answer (JSON)</text></g><!--SRC=[TP71ReCm38RlUGgh9pYWtNUOjCAajOSL5QGTKPeQDIfAM1AwyVPpI42WQJSx_lpxjyE5qmRoJg9ohEV6II5xhXpiFl421-NGj5pW3hW5UjaYkRxYsm-AmKcjAZGFD1COmYrRSCSlt0QbOl-Va0uASxB5oj7T_20n6Ed6_8RY7YV6cB6m2MGltYqymnc_1hGEal9KrV3K6otGsapGm9HvXCXWb-3tkYxXByXO98WjziH9s_1UDdSScmVlv3M9MSgedAqLNyi3K84wO2BNKlEEXE4KOkEd9QtioDjI9J9kHw3mKUE9YCsbR2jeUOlW2MWfn_cFs4fsRNC1mA0TEhTo6SuuNUQCjjVA8YI1MWuOZqxhAljDRScnEdsalm00]--></g></svg>